<?xml version="1.0" encoding="utf-8"?>
<!-- Generator: Adobe Illustrator 28.3.0, SVG Export Plug-In . SVG Version: 6.00 Build 0)  -->
<svg version="1.1" id="Layer_1" xmlns="http://www.w3.org/2000/svg" xmlns:xlink="http://www.w3.org/1999/xlink" x="0px" y="0px"
	 viewBox="0 0 1200 1200" style="enable-background:new 0 0 1200 1200;" xml:space="preserve">
<style type="text/css">
	.st0{fill:#C1CC92;}
	.st1{fill:#97BB11;}
	.st2{fill:#97BB13;}
	.st3{fill:#3B7004;}
	.st4{fill:#095227;}
	.st5{fill:#055224;}
	.st6{fill:#FFFFFF;}
</style>
<path class="st0" d="M443.4,419v-32.2c0,0,116,113.6,120.5,143.8c-4,7.4-31.2,39.7-53.1,45.6C489.1,582.2,443.4,419,443.4,419z"/>
<path class="st1" d="M681.5,204.5c-46.9,16.3-234.4,83.9-281.3,133.7c-5.9,6.3-5.7,16.3,0.8,22.1c41.3,37.7,150.4,134.3,163,170.3
	c4-17.9-19.3-101.7,10.4-171.1c27.8-65,67.3-116,109.1-151.6C685.2,206.5,683.6,203.8,681.5,204.5z"/>
<path class="st2" d="M318.3,518.1c-20.3,50.3-63,144.6-127.4,231.6C79.3,551.4,254,379.4,254,379.4
	C267.1,383.7,263.1,386.7,318.3,518.1z"/>
<path class="st3" d="M367.1,922.4c-89.2-57.5-144.3-116.2-176.1-172.7c64.4-86.9,107-181.2,127.4-231.6c1.4,3.2,2.7,6.5,4.2,9.9
	C390.9,676.5,377.5,874.8,367.1,922.4z"/>
<path class="st4" d="M432.2,772.9c0,0,98.4-139.8,109.7-184.1c11.3-44.3-35-167.4-299.4-305.7C250.3,295.3,412.4,543,432.2,772.9z"
	/>
<path class="st5" d="M366.9,1122.3L366.9,1122.3c-16.7-8-23.7-28-15.8-44.6l446.2-933.1c8-16.7,28-23.7,44.6-15.8l0,0
	c16.7,8,23.7,28,15.8,44.6l-446.2,933.1C403.6,1123.2,383.6,1130.2,366.9,1122.3z"/>
<g>
	<path class="st6" d="M842,128.7L842,128.7c-16.7-8-36.7-0.9-44.6,15.8L778,185.2h0c21,4.5,40.8,13.6,57.8,26.8l2.6,2l8.5-17.7
		c-8.6-18.6-41.6-30.9-41.6-30.9c12.2-23.7,28.6-21.6,35.3-21.6c6.7,0,14.5,22.7,6.3,52.4l11-23C865.8,156.7,858.7,136.7,842,128.7z
		"/>
	<polygon class="st6" points="846.8,196.4 846.8,196.4 846.8,196.4 	"/>
</g>
<path class="st6" d="M727.3,335.2c-18.8,0-34,15.2-34,34c0,18.8,15.2,34,34,34c18.8,0,34-15.2,34-34
	C761.3,350.4,746.1,335.2,727.3,335.2z M727.3,384.3c-8.4,0-15.1-6.8-15.1-15.1s6.8-15.1,15.1-15.1s15.1,6.8,15.1,15.1
	S735.7,384.3,727.3,384.3z"/>
<path class="st6" d="M663.3,468.5c-18.8,0-34,15.2-34,34c0,18.8,15.2,34,34,34c18.8,0,34-15.2,34-34
	C697.3,483.7,682.1,468.5,663.3,468.5z M663.3,517.6c-8.4,0-15.1-6.8-15.1-15.1s6.8-15.1,15.1-15.1c8.4,0,15.1,6.8,15.1,15.1
	S671.7,517.6,663.3,517.6z"/>
<path class="st6" d="M439.9,935.7c-18.8,0-34,15.2-34,34c0,18.8,15.2,34,34,34c18.8,0,34-15.2,34-34
	C473.9,950.9,458.7,935.7,439.9,935.7z M439.9,984.8c-8.4,0-15.1-6.8-15.1-15.1c0-8.4,6.8-15.1,15.1-15.1c8.4,0,15.1,6.8,15.1,15.1
	C455,978,448.3,984.8,439.9,984.8z"/>
<path class="st6" d="M348.8,1084.2c0,0-6.6,24.6,16.7,37.3c9.1,5.4,28.6,7.7,41.4-7.9C406.1,1111.9,361.3,1114.7,348.8,1084.2z"/>
</svg>
